<svg xmlns="http://www.w3.org/2000/svg" viewBox="0 0 64 64">
  <defs>
    <linearGradient id="g" x1="10" y1="8" x2="54" y2="56" gradientUnits="userSpaceOnUse">
      <stop stop-color="#3b82f6"/>
      <stop offset="1" stop-color="#8b5cf6"/>
    </linearGradient>
  </defs>
  <rect width="64" height="64" rx="14" fill="#0f172a"/>
  <path d="M17 33c0-7 5-12 12-12 6 0 10 4 14 10 2 3 4 5 7 5 2 0 4-2 4-4s-2-4-4-4c-2 0-4 1-6 4l-4-6c3-4 6-6 10-6 7 0 12 5 12 12s-5 12-12 12c-6 0-10-4-14-10-2-3-4-5-7-5-2 0-4 2-4 4s2 4 4 4c2 0 4-1 6-4l4 6c-3 4-6 6-10 6-7 0-12-5-12-12Z" fill="url(#g)"/>
  <path d="M13 15h38l-7 7H20l-7-7Zm0 34h38l-7-7H20l-7 7Z" fill="#e2e8f0" opacity=".9"/>
</svg>
