<svg xmlns="http://www.w3.org/2000/svg" viewBox="0 0 720 460" role="img" aria-labelledby="title desc">
  <title id="title">GIF frame conversion</title>
  <desc id="desc">A short clip split into frames and exported as a looping GIF.</desc>
  <rect width="720" height="460" rx="34" fill="#fbf6e7"/>
  <rect x="48" y="50" width="624" height="360" rx="28" fill="#fffdf6" stroke="#e3d3a3" stroke-width="3"/>
  <g transform="translate(90 98)">
    <rect width="150" height="112" rx="16" fill="#fff6d8" stroke="#d3bd80" stroke-width="3"/>
    <circle cx="62" cy="54" r="25" fill="#2f2612"/>
    <path d="M58 42l28 14-28 16z" fill="#fffdf6"/>
    <text x="35" y="146" font-family="Arial, sans-serif" font-size="18" font-weight="800" fill="#2f2612">Frame 01</text>
  </g>
  <g transform="translate(285 98)">
    <rect width="150" height="112" rx="16" fill="#fff6d8" stroke="#d3bd80" stroke-width="3"/>
    <circle cx="78" cy="54" r="25" fill="#7b5205"/>
    <path d="M74 42l28 14-28 16z" fill="#fffdf6"/>
    <text x="35" y="146" font-family="Arial, sans-serif" font-size="18" font-weight="800" fill="#2f2612">Frame 02</text>
  </g>
  <g transform="translate(480 98)">
    <rect width="150" height="112" rx="16" fill="#fff6d8" stroke="#d3bd80" stroke-width="3"/>
    <circle cx="94" cy="54" r="25" fill="#9a6a05"/>
    <path d="M90 42l28 14-28 16z" fill="#fffdf6"/>
    <text x="35" y="146" font-family="Arial, sans-serif" font-size="18" font-weight="800" fill="#2f2612">Frame 03</text>
  </g>
  <path d="M160 272c34 46 98 46 132 0s98-46 132 0 98 46 132 0" fill="none" stroke="#9a6a05" stroke-width="12" stroke-linecap="round"/>
  <path d="M548 252l34 20-34 20" fill="none" stroke="#9a6a05" stroke-width="12" stroke-linecap="round" stroke-linejoin="round"/>
  <rect x="252" y="334" width="216" height="50" rx="25" fill="#2f2612"/>
  <text x="313" y="366" font-family="Arial, sans-serif" font-size="22" font-weight="900" fill="#fffdf6">GIF LOOP</text>
</svg>
